<?xml version="1.0" standalone="no"?>
<!DOCTYPE svg PUBLIC "-//W3C//DTD SVG 20010904//EN"
 "http://www.w3.org/TR/2001/REC-SVG-20010904/DTD/svg10.dtd">
<svg version="1.0" xmlns="http://www.w3.org/2000/svg"
 width="170.000000pt" height="170.000000pt" viewBox="0 0 170.000000 170.000000"
 preserveAspectRatio="xMidYMid meet">

<g transform="translate(0.000000,170.000000) scale(0.100000,-0.100000)"
fill="#000000" stroke="none">
<path d="M1322 1213 l-184 -106 -87 22 c-48 11 -108 21 -133 21 -48 0 -58 -9
-58 -55 0 -28 -12 -38 -34 -29 -10 4 -16 18 -16 39 0 42 -12 50 -69 46 -180
-11 -362 -114 -391 -221 -17 -60 -6 -219 20 -303 55 -177 189 -248 465 -249
346 0 478 112 492 417 4 86 2 118 -10 147 l-16 38 67 38 c37 21 109 62 160 91
50 29 92 56 92 61 0 4 -18 40 -41 79 -25 44 -47 71 -57 70 -10 0 -100 -48
-200 -106z m237 -28 c0 -5 -46 -35 -102 -66 l-102 -57 -22 37 c-12 20 -23 41
-23 46 0 6 46 36 102 67 l102 57 23 -37 c12 -20 22 -41 22 -47z m-268 -99 c13
-25 21 -47 19 -50 -3 -2 -77 -45 -165 -96 -120 -69 -165 -90 -183 -85 -18 4
-22 10 -17 26 4 13 1 27 -9 38 -16 17 -7 23 151 114 92 53 171 96 174 96 3 1
17 -19 30 -43z m-521 -1 c0 -13 10 -33 22 -45 40 -37 90 -21 108 36 l12 36 51
-7 c28 -4 66 -13 84 -19 l32 -11 -130 -73 c-108 -61 -142 -75 -197 -83 -99
-13 -179 -46 -227 -93 -23 -23 -45 -48 -47 -56 -4 -12 -14 -7 -42 20 -39 37
-57 82 -49 123 14 71 132 152 265 181 99 22 118 21 118 -9z m510 -166 c10 -35
8 -46 -10 -84 -24 -49 -71 -88 -78 -64 -3 8 -24 33 -47 56 l-42 43 81 45 c45
24 82 44 83 45 1 0 7 -18 13 -41z m-497 -120 c22 -39 45 -73 52 -76 8 -2 59
20 113 51 55 31 105 56 111 56 16 0 91 -70 91 -85 0 -24 -147 -68 -255 -77
-26 -3 -31 -8 -36 -41 -7 -44 -13 -52 -34 -44 -9 4 -15 19 -15 41 0 39 8 36
-113 55 -84 14 -177 48 -177 65 0 27 71 80 137 102 37 13 73 24 78 24 6 0 27
-32 48 -71z m-271 -114 c61 -28 160 -55 199 -55 32 0 59 -23 59 -50 0 -23 36
-50 67 -50 30 0 63 34 63 64 0 25 16 36 54 36 35 0 175 39 217 61 21 10 55 34
75 52 l37 32 -5 -60 c-15 -151 -101 -243 -264 -281 -78 -18 -275 -20 -349 -4
-163 35 -253 126 -273 277 l-9 62 38 -30 c20 -16 61 -40 91 -54z"/>
</g>
</svg>
